<svg width="13" height="13" viewBox="0 0 13 13" fill="none" xmlns="http://www.w3.org/2000/svg">
<path d="M6.93333 1.73275V0H6.06667V1.73275H6.93333Z" fill="white"/>
<path d="M2.77949 2.1653L1.29979 0.686592L0.687174 1.29962L2.16687 2.77833L2.77949 2.1653Z" fill="white"/>
<path d="M10.8331 2.77833L12.3128 1.29962L11.7002 0.686592L10.2205 2.1653L10.8331 2.77833Z" fill="white"/>
<path d="M6.5 3.46439C4.82488 3.46439 3.46667 4.82131 3.46667 6.49603C3.46667 8.17075 4.82488 9.52767 6.5 9.52767C8.17512 9.52767 9.53333 8.17075 9.53333 6.49603C9.53333 4.82131 8.17512 3.46439 6.5 3.46439Z" fill="white"/>
<path d="M1.73333 6.0627H0V6.92937H1.73333V6.0627Z" fill="white"/>
<path d="M13 6.0627H11.2667V6.92937H13V6.0627Z" fill="white"/>
<path d="M1.29981 12.3055L2.77949 10.8267L2.16685 10.2137L0.687174 11.6925L1.29981 12.3055Z" fill="white"/>
<path d="M12.3128 11.6925L10.8331 10.2137L10.2205 10.8267L11.7002 12.3055L12.3128 11.6925Z" fill="white"/>
<path d="M6.93333 12.9921V11.2593H6.06667V12.9921H6.93333Z" fill="white"/>
</svg>
